<svg xmlns="http://www.w3.org/2000/svg" viewBox="5823.98388671875 4986.984375 18.917871475219727 17.062402725219727"> <path fill="#ffffff" fill-opacity="1" stroke="" stroke-opacity="1" stroke-width="0.8" fill-rule="evenodd" id="tSvg18694a666d2" d="M 5841.8610125 4987.9535 C 5841.7651125 4987.8709 5841.6485125 4987.8158 5841.5238125 4987.7944 C 5841.3990125 4987.773 5841.2707125 4987.786 5841.1528125 4987.8322 C 5825.4849125 4993.9637 5825.4849125 4993.9637 5825.4849125 4993.9637 C 5825.2628125 4994.0501 5825.0748125 4994.2062 5824.9492125 4994.4087 C 5824.8237125 4994.6111 5824.7671125 4994.8488 5824.7883125 4995.0861 C 5824.8095125 4995.3234 5824.9073125 4995.5474 5825.0668125 4995.7244 C 5825.2263125 4995.9013 5825.4389125 4996.0218 5825.6728125 4996.0674 C 5829.7324125 4996.8644 5829.7324125 4996.8644 5829.7324125 4996.8644 C 5829.7324125 4996.8644 5829.7324125 5001.391 5829.7324125 5001.391 C 5829.7315125 5001.6376 5829.8049125 5001.8786 5829.9427125 5002.0831 C 5830.0806125 5002.2876 5830.2767125 5002.4459 5830.5055125 5002.5375 C 5830.7340125 5002.6308 5830.9854125 5002.6532 5831.2267125 5002.6018 C 5831.4681125 5002.5504 5831.6885125 5002.4275 5831.8592125 5002.2491 C 5833.8167125 5000.219 5833.8167125 5000.219 5833.8167125 5000.219 C 5833.8167125 5000.219 5836.9224125 5002.9372 5836.9224125 5002.9372 C 5837.1464125 5003.1359 5837.4354125 5003.2459 5837.7348125 5003.2465 C 5837.8661125 5003.2463 5837.9965125 5003.2257 5838.1214125 5003.1853 C 5838.3255125 5003.1206 5838.5090125 5003.0035 5838.6538125 5002.8458 C 5838.7984125 5002.688 5838.8994125 5002.4952 5838.9464125 5002.2863 C 5842.0844125 4988.6347 5842.0844125 4988.6347 5842.0844125 4988.6347 C 5842.1124125 4988.5115 5842.1065125 4988.3831 5842.0672125 4988.2631 C 5842.0278125 4988.1431 5841.9565125 4988.0362 5841.8610125 4987.9535Z M 5837.1341125 4990.7367 C 5830.2079125 4995.697 5830.2079125 4995.697 5830.2079125 4995.697 C 5830.2079125 4995.697 5826.3732125 4994.9447 5826.3732125 4994.9447 C 5826.3732125 4994.9447 5837.1341125 4990.7367 5837.1341125 4990.7367 M 5830.9693125 5001.391 C 5830.9693125 4997.7203 5830.9693125 4997.7203 5830.9693125 4997.7203 C 5830.9693125 4997.7203 5832.8859125 4999.401 5832.8859125 4999.401 C 5832.8859125 4999.401 5830.9693125 5001.391 5830.9693125 5001.391 M 5837.7364125 5002.0095 C 5831.3444125 4996.4044 5831.3444125 4996.4044 5831.3444125 4996.4044 C 5831.3444125 4996.4044 5840.5443125 4989.8106 5840.5443125 4989.8106 C 5840.5443125 4989.8106 5837.7364125 5002.0095 5837.7364125 5002.0095"></path> <defs></defs> </svg>