<svg xmlns="http://www.w3.org/2000/svg" viewBox="5698 1528 18 13"> <path fill="#EFC78F" fill-opacity="1" stroke="" stroke-opacity="1" stroke-width="1" id="tSvg111aad110e5" d="M 5703.95559 1539.6326 C 5704.14479 1539.8163 5704.52318 1540 5704.80698 1540 C 5705.09078 1540 5705.37457 1539.9081 5705.65837 1539.6326 C 5714.6453 1530.90605 5714.6453 1530.90605 5714.6453 1530.90605 C 5715.1182 1530.44676 5715.1182 1529.7119 5714.6453 1529.344468 C 5714.1723 1528.885177 5713.4155 1528.885177 5713.0371 1529.344468 C 5704.80698 1537.24426 5704.80698 1537.24426 5704.80698 1537.24426 C 5704.80698 1537.24426 5700.92843 1533.47808 5700.92843 1533.47808 C 5700.45543 1533.01879 5699.698645 1533.01879 5699.32025 1533.47808 C 5698.9418552 1533.93737 5698.847256 1534.67223 5699.32025 1535.03966 C 5703.95559 1539.6326 5703.95559 1539.6326 5703.95559 1539.6326"></path> <defs></defs> </svg>