<svg xmlns="http://www.w3.org/2000/svg" viewBox="5602 4882.78125 918 318.85302734375"> <path fill="transparent" fill-opacity="1" stroke="#494747" stroke-opacity="1" stroke-width="1" id="tSvg67b808910e" d="M 5607.103942652329 5194.668331023186 C 5745.817204301075 5090.39535611279 5745.817204301075 5090.39535611279 5745.817204301075 5090.39535611279 C 5745.817204301075 5090.39535611279 5785.215053763441 5128.184460055443 5785.215053763441 5128.184460055443 M 5850.878136200717 5194.668331023186 C 5785.215053763441 5128.184460055443 5785.215053763441 5128.184460055443 5785.215053763441 5128.184460055443 M 5785.215053763441 5128.184460055443 C 5901.767025089605 5038.718510234655 5901.767025089605 5038.718510234655 5901.767025089605 5038.718510234655 C 5901.767025089605 5038.718510234655 5940.344086021505 5078.937148227486 5940.344086021505 5078.937148227486 M 6056.896057347671 5194.668331023186 C 5940.344086021505 5078.937148227486 5940.344086021505 5078.937148227486 5940.344086021505 5078.937148227486 M 5940.344086021505 5078.937148227486 C 6051.971326164875 4994.395929589494 6051.971326164875 4994.395929589494 6051.971326164875 4994.395929589494 C 6051.971326164875 4994.395929589494 6101.218637992832 5043.643241417451 6101.218637992832 5043.643241417451 M 6251.4229390681 5194.668331023186 C 6101.218637992832 5043.643241417451 6101.218637992832 5043.643241417451 6101.218637992832 5043.643241417451 M 6101.218637992832 5043.643241417451 C 6253.885304659499 4929.553635682683 6253.885304659499 4929.553635682683 6253.885304659499 4929.553635682683 C 6253.885304659499 4929.553635682683 6519 5194.668331023186 6519 5194.668331023186"></path> <path fill="transparent" fill-opacity="1" stroke="#494747" stroke-opacity="1" stroke-width="1" id="tSvg112d2513b4f" d="M 5612.875103799283 5188.949076542898 C 5619.159274193548 4998.628079410281 5972.354838709677 4788.37800844254 6251.166853046595 4930.4000328153" stroke-dasharray="3 3"></path> <path fill="#EFC78F" fill-opacity="1" stroke="" stroke-opacity="1" stroke-width="1" id="tSvg17aecdacba" d="M 6242.188247311828 4933.706825646841 C 6242.18824717155 4941.089914669853 6250.180675399287 4945.704345468336 6256.574618121756 4942.012801078316 C 6259.542057379116 4940.299549299451 6261.37007533392 4937.133329317334 6261.370075268817 4933.706825646841 C 6261.370075409096 4926.32373662383 6253.377647181358 4921.709305825347 6246.983704458889 4925.400850215367 C 6244.01626520153 4927.1141019942315 6242.188247246724 4930.280321976349 6242.188247311828 4933.706825646841C 6242.188247311828 4933.706825646841 6242.188247246724 4930.280321976349 6242.188247311828 4933.706825646841 Z"></path> <path fill="#EFC78F" fill-opacity="1" stroke="" stroke-opacity="1" stroke-width="1" id="tSvg11e84386350" d="M 5603 5191.0289546791 C 5603 5198.412043702111 5610.992428315411 5203.026474341492 5617.386370967742 5199.334929829987 C 5620.353810079786 5197.621678059845 5622.18182795699 5194.455458219385 5622.18182795699 5191.0289546791 C 5622.18182795699 5183.645865656088 5614.1893996415765 5179.031435016706 5607.795456989248 5182.722979528211 C 5604.828017877203 5184.436231298354 5603 5187.602451138813 5603 5191.0289546791C 5603 5191.0289546791 5603 5187.602451138813 5603 5191.0289546791 Z"></path> <path fill="transparent" fill-opacity="1" stroke="#494747" stroke-opacity="1" stroke-width="1" id="tSvgdad1bc6d10" d="M 5877.964157706093 5056.775857904906 C 5884.530465949821 5061.700589087702 5884.530465949821 5061.700589087702 5884.530465949821 5061.700589087702 C 5884.530465949821 5061.700589087702 5891.096774193548 5056.775857904906 5891.096774193548 5056.775857904906 C 5891.096774193548 5056.775857904906 5898.4838709677415 5061.700589087702 5898.4838709677415 5061.700589087702 C 5898.4838709677415 5061.700589087702 5905.870967741936 5056.775857904906 5905.870967741936 5056.775857904906 C 5905.870967741936 5056.775857904906 5913.258064516129 5061.700589087702 5913.258064516129 5061.700589087702 C 5913.258064516129 5061.700589087702 5919.8243727598565 5056.775857904906 5919.8243727598565 5056.775857904906"></path> <path fill="transparent" fill-opacity="1" stroke="#494747" stroke-opacity="1" stroke-width="1" id="tSvg636cea84f8" d="M 6028.168458781362 5012.453277259745 C 6034.734767025089 5017.37800844254 6034.734767025089 5017.37800844254 6034.734767025089 5017.37800844254 C 6034.734767025089 5017.37800844254 6041.301075268817 5012.453277259745 6041.301075268817 5012.453277259745 C 6041.301075268817 5012.453277259745 6048.688172043011 5017.37800844254 6048.688172043011 5017.37800844254 C 6048.688172043011 5017.37800844254 6056.075268817204 5012.453277259745 6056.075268817204 5012.453277259745 C 6056.075268817204 5012.453277259745 6063.462365591397 5017.37800844254 6063.462365591397 5017.37800844254 C 6063.462365591397 5017.37800844254 6070.028673835125 5012.453277259745 6070.028673835125 5012.453277259745"></path> <path fill="transparent" fill-opacity="1" stroke="#494747" stroke-opacity="1" stroke-width="1" id="tSvg17bddb5fb07" d="M 6230.082437275985 4946.790194822469 C 6236.648745519713 4951.714926005264 6236.648745519713 4951.714926005264 6236.648745519713 4951.714926005264 C 6236.648745519713 4951.714926005264 6243.215053763441 4946.790194822469 6243.215053763441 4946.790194822469 C 6243.215053763441 4946.790194822469 6250.602150537635 4951.714926005264 6250.602150537635 4951.714926005264 C 6250.602150537635 4951.714926005264 6257.989247311828 4946.790194822469 6257.989247311828 4946.790194822469 C 6257.989247311828 4946.790194822469 6265.376344086021 4951.714926005264 6265.376344086021 4951.714926005264 C 6265.376344086021 4951.714926005264 6271.942652329749 4946.790194822469 6271.942652329749 4946.790194822469"></path> <path fill="transparent" fill-opacity="1" stroke="#494747" stroke-opacity="1" stroke-width="1" id="tSvg6593516750" d="M 5722.8351254480285 5107.664746793795 C 5729.401433691756 5112.58947797659 5729.401433691756 5112.58947797659 5729.401433691756 5112.58947797659 C 5729.401433691756 5112.58947797659 5735.967741935484 5107.664746793795 5735.967741935484 5107.664746793795 C 5735.967741935484 5107.664746793795 5743.354838709677 5112.58947797659 5743.354838709677 5112.58947797659 C 5743.354838709677 5112.58947797659 5750.741935483871 5107.664746793795 5750.741935483871 5107.664746793795 C 5750.741935483871 5107.664746793795 5758.129032258064 5112.58947797659 5758.129032258064 5112.58947797659 C 5758.129032258064 5112.58947797659 5764.695340501792 5107.664746793795 5764.695340501792 5107.664746793795"></path> <defs></defs> </svg>