<svg xmlns="http://www.w3.org/2000/svg" viewBox="5692 5524 18 13"> <path fill="#EFC78F" fill-opacity="1" stroke="" stroke-opacity="1" stroke-width="1" id="tSvgf400c923dd" d="M 5697.95559 5535.6326 C 5698.14479 5535.8163 5698.52318 5536 5698.80698 5536 C 5699.09078 5536 5699.37457 5535.9081 5699.65837 5535.6326 C 5708.6453 5526.90605 5708.6453 5526.90605 5708.6453 5526.90605 C 5709.1182 5526.44676 5709.1182 5525.7119 5708.6453 5525.344468 C 5708.1723 5524.885177 5707.4155 5524.885177 5707.0371 5525.344468 C 5698.80698 5533.24426 5698.80698 5533.24426 5698.80698 5533.24426 C 5698.80698 5533.24426 5694.92843 5529.47808 5694.92843 5529.47808 C 5694.45543 5529.01879 5693.698645 5529.01879 5693.32025 5529.47808 C 5692.9418552 5529.93737 5692.847256 5530.67223 5693.32025 5531.03966 C 5697.95559 5535.6326 5697.95559 5535.6326 5697.95559 5535.6326"></path> <defs> <mask maskUnits="userSpaceOnUse" id="tSvgf400c923ddm" data-svg-id="tSvgHighlight"> <rect x="0" y="0" width="12000" height="9999.984375" fill="white"></rect> <path fill="black" fill-opacity="1" stroke="black" stroke-opacity="1" stroke-width="1" data-svg-name="path" data-svg-id="f400c923dd" d="M 5697.95559 5535.6326 C 5698.14479 5535.8163 5698.52318 5536 5698.80698 5536 C 5699.09078 5536 5699.37457 5535.9081 5699.65837 5535.6326 C 5708.6453 5526.90605 5708.6453 5526.90605 5708.6453 5526.90605 C 5709.1182 5526.44676 5709.1182 5525.7119 5708.6453 5525.344468 C 5708.1723 5524.885177 5707.4155 5524.885177 5707.0371 5525.344468 C 5698.80698 5533.24426 5698.80698 5533.24426 5698.80698 5533.24426 C 5698.80698 5533.24426 5694.92843 5529.47808 5694.92843 5529.47808 C 5694.45543 5529.01879 5693.698645 5529.01879 5693.32025 5529.47808 C 5692.9418552 5529.93737 5692.847256 5530.67223 5693.32025 5531.03966 C 5697.95559 5535.6326 5697.95559 5535.6326 5697.95559 5535.6326"></path> </mask> </defs> </svg>