<svg xmlns="http://www.w3.org/2000/svg" viewBox="5840.99951171875 4697 72.84521484375 36.015625"> <path fill="#494747" fill-opacity="1" stroke="" stroke-opacity="1" stroke-width="1" id="tSvg6137a65ec6" d="M 5885.2579 4726.2809 C 5899.9648 4726.2809 5899.9648 4726.2809 5899.9648 4726.2809 C 5900.3117 4726.2809 5900.6123 4726.0034 5900.6123 4725.6334 C 5900.6123 4725.2634 5900.3348 4724.9859 5899.9648 4724.9859 C 5885.2579 4724.9859 5885.2579 4724.9859 5885.2579 4724.9859 C 5884.911 4724.9859 5884.6104 4725.2634 5884.6104 4725.6334 C 5884.6104 4726.0034 5884.8879 4726.2809 5885.2579 4726.2809Z"></path> <path fill="#494747" fill-opacity="1" stroke="" stroke-opacity="1" stroke-width="1" id="tSvg1648ff23a90" d="M 5885.2578 4726.2808 C 5885.6047 4726.2808 5885.8821 4726.0034 5885.9053 4725.6565 C 5885.9053 4725.3096 5885.6278 4725.009 5885.2809 4725.009 C 5884.9109 4725.009 5884.9109 4725.009 5884.9109 4725.009 C 5884.9109 4725.009 5884.5641 4724.9859 5884.5641 4724.9859 C 5884.5641 4724.9859 5884.2172 4724.9628 5884.2172 4724.9628 C 5884.2172 4724.9628 5883.5466 4724.8703 5883.5466 4724.8703 C 5883.5466 4724.8703 5882.876 4724.7315 5882.876 4724.7315 C 5882.876 4724.7315 5882.2285 4724.5465 5882.2285 4724.5465 C 5882.2285 4724.5465 5881.9048 4724.4309 5881.9048 4724.4309 C 5881.9048 4724.4309 5881.2804 4724.1765 5881.2804 4724.1765 C 5881.2804 4724.1765 5880.9798 4724.0378 5880.9798 4724.0378 C 5880.9798 4724.0378 5880.3786 4723.7141 5880.3786 4723.7141 C 5880.3786 4723.7141 5880.078 4723.5522 5880.078 4723.5522 C 5880.078 4723.5522 5879.4999 4723.1822 5879.4999 4723.1822 C 5879.4999 4723.1822 5879.2224 4722.9741 5879.2224 4722.9741 C 5879.2224 4722.9741 5878.9449 4722.766 5878.9449 4722.766 C 5878.9449 4722.766 5878.6905 4722.5347 5878.6905 4722.5347 C 5878.6905 4722.5347 5878.4362 4722.3035 5878.4362 4722.3035 C 5878.4362 4722.3035 5878.1818 4722.0722 5878.1818 4722.0722 C 5877.9274 4721.8179 5877.5343 4721.841 5877.28 4722.0954 C 5877.0256 4722.3497 5877.0487 4722.7428 5877.3031 4722.9972 C 5877.5575 4723.2516 5877.5575 4723.2516 5877.5575 4723.2516 C 5877.5575 4723.2516 5877.8349 4723.5059 5877.8349 4723.5059 C 5877.8349 4723.5059 5878.1356 4723.7603 5878.1356 4723.7603 C 5878.1356 4723.7603 5878.4362 4723.9915 5878.4362 4723.9915 C 5878.4362 4723.9915 5878.7368 4724.2228 5878.7368 4724.2228 C 5878.7368 4724.2228 5879.0605 4724.4309 5879.0605 4724.4309 C 5879.0605 4724.4309 5879.3843 4724.639 5879.3843 4724.639 C 5879.3843 4724.639 5879.708 4724.824 5879.708 4724.824 C 5879.708 4724.824 5880.0549 4725.009 5880.0549 4725.009 C 5880.0549 4725.009 5880.4017 4725.1709 5880.4017 4725.1709 C 5880.4017 4725.1709 5880.7486 4725.3328 5880.7486 4725.3328 C 5880.7486 4725.3328 5881.0954 4725.4715 5881.0954 4725.4715 C 5881.0954 4725.4715 5881.4654 4725.6102 5881.4654 4725.6102 C 5881.4654 4725.6102 5881.8354 4725.7259 5881.8354 4725.7259 C 5881.8354 4725.7259 5882.2054 4725.8415 5882.2054 4725.8415 C 5882.2054 4725.8415 5882.5754 4725.934 5882.5754 4725.934 C 5882.5754 4725.934 5882.9454 4726.0265 5882.9454 4726.0265 C 5882.9454 4726.0265 5883.3154 4726.119 5883.3154 4726.119 C 5883.3154 4726.119 5883.6854 4726.1883 5883.6854 4726.1883 C 5883.6854 4726.1883 5884.0785 4726.2346 5884.0785 4726.2346 C 5884.0785 4726.2346 5884.4716 4726.2577 5884.4716 4726.2577 C 5884.4716 4726.2577 5884.8647 4726.2808 5884.8647 4726.2808 C 5884.8647 4726.2808 5885.2578 4726.2808 5885.2578 4726.2808"></path> <path fill="#494747" fill-opacity="1" stroke="" stroke-opacity="1" stroke-width="1" id="tSvg15a21b98e66" d="M 5877.7425 4723.1591 C 5877.9043 4723.1591 5878.0662 4723.0897 5878.1818 4722.9741 C 5878.4362 4722.7197 5878.4362 4722.3266 5878.1818 4722.0722 C 5873.557 4717.4243 5873.557 4717.4243 5873.557 4717.4243 C 5873.5339 4717.4012 5873.4876 4717.378 5873.4645 4717.3549 C 5869.4409 4714.6263 5869.4409 4714.6263 5869.4409 4714.6263 C 5869.3253 4714.5569 5869.2097 4714.5106 5869.094 4714.5106 C 5849.83162 4714.5106 5849.83162 4714.5106 5849.83162 4714.5106 C 5849.6235 4714.5106 5849.41537 4714.6263 5849.29976 4714.8113 C 5846.64048 4718.9042 5846.64048 4718.9042 5846.64048 4718.9042 C 5846.64048 4718.9042 5845.04491 4718.9042 5845.04491 4718.9042 C 5845.04491 4718.9042 5846.36299 4712.0364 5846.36299 4712.0364 C 5846.38612 4711.9207 5846.38612 4711.8051 5846.33987 4711.7126 C 5843.56497 4703.87354 5843.56497 4703.87354 5843.56497 4703.87354 C 5843.56497 4703.87354 5847.05672 4703.87354 5847.05672 4703.87354 C 5847.05672 4703.87354 5849.97035 4710.9495 5849.97035 4710.9495 C 5850.06285 4711.1808 5850.29409 4711.3426 5850.57158 4711.3426 C 5876.54 4711.3426 5876.54 4711.3426 5876.54 4711.3426 C 5876.8869 4711.3426 5877.1875 4711.0651 5877.1875 4710.6952 C 5877.1875 4708.3827 5877.1875 4708.3827 5877.1875 4708.3827 C 5877.1875 4708.3827 5892.6113 4708.3827 5892.6113 4708.3827 C 5892.6113 4708.3827 5892.6113 4709.169 5892.6113 4709.169 C 5892.6113 4709.5158 5892.8888 4709.8164 5893.2588 4709.8164 C 5893.6288 4709.8164 5893.9062 4709.539 5893.9062 4709.169 C 5893.9062 4707.75839 5893.9062 4707.75839 5893.9062 4707.75839 C 5893.9062 4707.41153 5893.6288 4707.11092 5893.2588 4707.11092 C 5876.5631 4707.11092 5876.5631 4707.11092 5876.5631 4707.11092 C 5876.2163 4707.11092 5875.9157 4707.38841 5875.9157 4707.75839 C 5875.9157 4710.0708 5875.9157 4710.0708 5875.9157 4710.0708 C 5875.9157 4710.0708 5850.9647 4710.0708 5850.9647 4710.0708 C 5850.9647 4710.0708 5848.05105 4702.99482 5848.05105 4702.99482 C 5847.95856 4702.76358 5847.72731 4702.60171 5847.44982 4702.60171 C 5842.640003 4702.60171 5842.640003 4702.60171 5842.640003 4702.60171 C 5842.431885 4702.60171 5842.246887 4702.6942 5842.108143 4702.8792 C 5841.99251938 4703.04107 5841.9693985 4703.27231 5842.0387726 4703.4573 C 5845.06804 4711.967 5845.06804 4711.967 5845.06804 4711.967 C 5845.06804 4711.967 5843.63434 4719.413 5843.63434 4719.413 C 5843.58809 4719.598 5843.65746 4719.783 5843.77308 4719.9448 C 5843.88871 4720.0836 5844.0737 4720.1761 5844.25869 4720.1761 C 5846.98734 4720.1761 5846.98734 4720.1761 5846.98734 4720.1761 C 5847.19546 4720.1761 5847.40358 4720.0604 5847.5192 4719.8755 C 5850.17848 4715.7825 5850.17848 4715.7825 5850.17848 4715.7825 C 5850.17848 4715.7825 5868.909 4715.7825 5868.909 4715.7825 C 5868.909 4715.7825 5872.7245 4718.3724 5872.7245 4718.3724 C 5872.7245 4718.3724 5877.3031 4722.9741 5877.3031 4722.9741 C 5877.4187 4723.1128 5877.5806 4723.1591 5877.7425 4723.1591Z"></path> <path fill="#494747" fill-opacity="1" stroke="" stroke-opacity="1" stroke-width="1" id="tSvg76d40e5156" d="M 5888.6106 4702.62483 C 5912.1973 4702.62483 5912.1973 4702.62483 5912.1973 4702.62483 C 5912.5441 4702.62483 5912.8447 4702.34734 5912.8447 4701.97736 C 5912.8447 4701.60737 5912.5672 4701.32988 5912.1973 4701.32988 C 5888.6106 4701.32988 5888.6106 4701.32988 5888.6106 4701.32988 C 5888.2638 4701.32988 5887.9631 4701.60737 5887.9631 4701.97736 C 5887.9631 4702.34734 5888.2638 4702.62483 5888.6106 4702.62483Z"></path> <path fill="#494747" fill-opacity="1" stroke="" stroke-opacity="1" stroke-width="1" id="tSvg4f0f0838df" d="M 5865.0237 4702.62483 C 5888.6103 4702.62483 5888.6103 4702.62483 5888.6103 4702.62483 C 5888.9572 4702.62483 5889.2578 4702.34734 5889.2578 4701.97736 C 5889.2578 4701.60737 5888.9803 4701.32988 5888.6103 4701.32988 C 5865.0237 4701.32988 5865.0237 4701.32988 5865.0237 4701.32988 C 5864.6768 4701.32988 5864.3762 4701.60737 5864.3762 4701.97736 C 5864.3762 4702.34734 5864.6768 4702.62483 5865.0237 4702.62483Z"></path> <path fill="#494747" fill-opacity="1" stroke="" stroke-opacity="1" stroke-width="1" id="tSvge07e47f2c1" d="M 5888.6103 4708.3596 C 5888.9572 4708.3596 5889.2578 4708.0821 5889.2578 4707.71214 C 5889.2578 4698.647477 5889.2578 4698.647477 5889.2578 4698.647477 C 5889.2578 4698.300615 5888.9803 4698 5888.6103 4698 C 5888.2403 4698 5887.9629 4698.277491 5887.9629 4698.647477 C 5887.9629 4707.71214 5887.9629 4707.71214 5887.9629 4707.71214 C 5887.986 4708.0821 5888.2635 4708.3596 5888.6103 4708.3596Z"></path> <path fill="#494747" fill-opacity="1" stroke="" stroke-opacity="1" stroke-width="1" id="tSvg14b56a63958" d="M 5899.1554 4732.0156 C 5899.2247 4732.0156 5899.271 4732.0156 5899.3404 4731.9925 C 5899.6872 4731.9 5899.8722 4731.53 5899.7566 4731.1832 C 5897.9992 4725.4715 5897.9992 4725.4715 5897.9992 4725.4715 C 5897.9067 4725.1246 5897.5367 4724.9396 5897.1898 4725.0553 C 5896.843 4725.1478 5896.658 4725.5177 5896.7736 4725.8646 C 5898.531 4731.5763 5898.531 4731.5763 5898.531 4731.5763 C 5898.6235 4731.8306 5898.8779 4732.0156 5899.1554 4732.0156Z"></path> <path fill="#494747" fill-opacity="1" stroke="" stroke-opacity="1" stroke-width="1" id="tSvg1287cb26bec" d="M 5887.0148 4732.0156 C 5887.0841 4732.0156 5887.1304 4732.0156 5887.1997 4731.9925 C 5887.5466 4731.9 5887.7316 4731.53 5887.616 4731.1832 C 5885.8585 4725.4715 5885.8585 4725.4715 5885.8585 4725.4715 C 5885.766 4725.1246 5885.3961 4724.9396 5885.0492 4725.0553 C 5884.7023 4725.1478 5884.5173 4725.5177 5884.633 4725.8646 C 5886.3904 4731.5763 5886.3904 4731.5763 5886.3904 4731.5763 C 5886.4829 4731.8306 5886.7373 4732.0156 5887.0148 4732.0156Z"></path> <path fill="#494747" fill-opacity="1" stroke="" stroke-opacity="1" stroke-width="1" id="tSvgfc5c98be8b" d="M 5909.353 4732.0156 C 5909.3761 4732.0156 5909.3761 4732.0156 5909.353 4732.0156 C 5909.6999 4731.9925 5909.6999 4731.9925 5909.6999 4731.9925 C 5909.6999 4731.9925 5910.0467 4731.9463 5910.0467 4731.9463 C 5910.0467 4731.9463 5910.0699 4731.9463 5910.0699 4731.9463 C 5910.0699 4731.9463 5910.3936 4731.8538 5910.3936 4731.8538 C 5910.3936 4731.8538 5910.7173 4731.7381 5910.7173 4731.7381 C 5910.7173 4731.7381 5911.0411 4731.5763 5911.0411 4731.5763 C 5911.0411 4731.5763 5911.0642 4731.5763 5911.0642 4731.5531 C 5911.3417 4731.3682 5911.3417 4731.3682 5911.3417 4731.3682 C 5911.3417 4731.3682 5911.3648 4731.3682 5911.3648 4731.345 C 5911.6192 4731.1369 5911.6192 4731.1369 5911.6192 4731.1369 C 5911.6192 4731.1369 5911.6423 4731.1369 5911.6423 4731.1138 C 5911.8735 4730.8825 5911.8735 4730.8825 5911.8735 4730.8825 C 5911.8735 4730.8825 5912.1048 4730.6051 5912.1048 4730.6051 C 5912.1048 4730.6051 5912.3129 4730.3044 5912.3129 4730.3044 C 5912.3129 4730.3044 5912.4517 4730.0501 5912.4517 4730.0501 C 5912.4517 4730.0501 5912.5904 4729.7263 5912.5904 4729.7263 C 5912.5904 4729.7263 5912.6829 4729.3795 5912.6829 4729.3795 C 5912.6829 4729.3795 5912.7523 4729.0326 5912.7523 4729.0326 C 5912.7523 4729.0326 5912.7754 4728.6858 5912.7754 4728.6858 C 5912.7754 4728.6858 5912.7754 4728.5701 5912.7754 4728.5701 C 5912.7754 4728.5701 5912.7754 4728.4545 5912.7754 4728.4545 C 5912.7754 4728.1076 5912.4748 4727.8302 5912.1279 4727.8302 C 5912.1048 4727.8302 5912.1048 4727.8302 5912.1048 4727.8302 C 5911.7579 4727.8302 5911.4804 4728.1308 5911.4804 4728.4776 C 5911.4804 4728.5701 5911.4804 4728.5701 5911.4804 4728.5701 C 5911.4804 4728.5701 5911.4573 4728.9401 5911.4573 4728.9401 C 5911.4573 4728.9401 5911.3648 4729.287 5911.3648 4729.287 C 5911.3648 4729.287 5911.2029 4729.6338 5911.2029 4729.6338 C 5911.2029 4729.6338 5910.9948 4729.9345 5910.9948 4729.9345 C 5910.9948 4729.9345 5910.7405 4730.1888 5910.7405 4730.1888 C 5910.7405 4730.1888 5910.3705 4730.4432 5910.3705 4730.4432 C 5910.3705 4730.4432 5910.0236 4730.6051 5910.0236 4730.6051 C 5910.0236 4730.6051 5909.7461 4730.6744 5909.7461 4730.6744 C 5909.7461 4730.6744 5909.3761 4730.7207 5909.3761 4730.7207 C 5909.3761 4730.7207 5909.3068 4730.7207 5909.3068 4730.7207 C 5908.9599 4730.7207 5908.6824 4731.0213 5908.6824 4731.3682 C 5908.7287 4731.7381 5909.0062 4732.0156 5909.353 4732.0156Z"></path> <path fill="#494747" fill-opacity="1" stroke="" stroke-opacity="1" stroke-width="1" id="tSvg26555da79d" d="M 5881.2114 4732.0156 C 5909.3535 4732.0156 5909.3535 4732.0156 5909.3535 4732.0156 C 5909.7004 4732.0156 5910.001 4731.7381 5910.001 4731.3682 C 5910.001 4730.9982 5909.7235 4730.7207 5909.3535 4730.7207 C 5881.2114 4730.7207 5881.2114 4730.7207 5881.2114 4730.7207 C 5880.8645 4730.7207 5880.5639 4730.9982 5880.5639 4731.3682 C 5880.5639 4731.7381 5880.8645 4732.0156 5881.2114 4732.0156Z"></path> <path fill="#494747" fill-opacity="1" stroke="" stroke-opacity="1" stroke-width="1" id="tSvg1305446e924" d="M 5899.9412 4726.2808 C 5899.9644 4726.2808 5899.9644 4726.2808 5899.9644 4726.2808 C 5899.9644 4726.2808 5900.7043 4726.2346 5900.7043 4726.2346 C 5900.7043 4726.2346 5901.4443 4726.1421 5901.4443 4726.1421 C 5901.4443 4726.1421 5902.1843 4726.0265 5902.1843 4726.0265 C 5902.1843 4726.0265 5902.9243 4725.8646 5902.9243 4725.8646 C 5902.9243 4725.8646 5903.6642 4725.6565 5903.6642 4725.6565 C 5903.6642 4725.6565 5904.0342 4725.5409 5904.0342 4725.5409 C 5904.0342 4725.5409 5904.4042 4725.4021 5904.4042 4725.4021 C 5904.4042 4725.4021 5904.7742 4725.2634 5904.7742 4725.2634 C 5904.7742 4725.2634 5905.491 4724.9396 5905.491 4724.9396 C 5905.491 4724.9396 5906.1848 4724.5697 5906.1848 4724.5697 C 5906.1848 4724.5697 5906.6935 4724.2459 5906.6935 4724.2459 C 5906.6935 4724.2459 5907.1791 4723.8991 5907.1791 4723.8991 C 5907.1791 4723.8991 5907.6416 4723.5059 5907.6416 4723.5059 C 5907.6416 4723.5059 5908.0809 4723.0897 5908.0809 4723.0897 C 5908.0809 4723.0897 5908.5434 4722.5579 5908.5434 4722.5579 C 5908.5434 4722.5579 5908.8903 4722.0722 5908.8903 4722.0722 C 5908.8903 4722.0722 5909.214 4721.5404 5909.214 4721.5404 C 5909.214 4721.5404 5909.4915 4720.9854 5909.4915 4720.9854 C 5909.4915 4720.9854 5909.7228 4720.4304 5909.7228 4720.4304 C 5909.7228 4720.4304 5909.9077 4719.8523 5909.9077 4719.8523 C 5909.9077 4719.8523 5910.0465 4719.2511 5910.0465 4719.2511 C 5910.0465 4719.2511 5910.139 4718.6499 5910.139 4718.6499 C 5910.139 4718.6499 5910.1621 4718.1643 5910.1621 4718.1643 C 5910.1621 4718.1643 5910.1621 4717.9793 5910.1621 4717.9793 C 5910.1621 4717.9793 5910.139 4717.4705 5910.139 4717.4705 C 5910.139 4717.4705 5910.0927 4716.9618 5910.0927 4716.9618 C 5910.0927 4716.9618 5909.954 4716.2912 5909.954 4716.2912 C 5909.954 4716.2912 5909.769 4715.6206 5909.769 4715.6206 C 5909.769 4715.6206 5909.5378 4714.9731 5909.5378 4714.9731 C 5909.5378 4714.9731 5909.2371 4714.3488 5909.2371 4714.3488 C 5909.2371 4714.3488 5908.8903 4713.7707 5908.8903 4713.7707 C 5908.8903 4713.7707 5908.5203 4713.2157 5908.5203 4713.2157 C 5908.5203 4713.2157 5908.1041 4712.7301 5908.1041 4712.7301 C 5908.1041 4712.7301 5907.6647 4712.2676 5907.6647 4712.2676 C 5907.6647 4712.2676 5907.2022 4711.8514 5907.2022 4711.8514 C 5907.2022 4711.8514 5906.7166 4711.4814 5906.7166 4711.4814 C 5906.7166 4711.4814 5906.2079 4711.1345 5906.2079 4711.1345 C 5906.2079 4711.1345 5905.676 4710.8108 5905.676 4710.8108 C 5905.676 4710.8108 5905.121 4710.5102 5905.121 4710.5102 C 5905.121 4710.5102 5904.5429 4710.2558 5904.5429 4710.2558 C 5904.5429 4710.2558 5903.9648 4710.0246 5903.9648 4710.0246 C 5903.9648 4710.0246 5903.3636 4709.8164 5903.3636 4709.8164 C 5903.3636 4709.8164 5902.7624 4709.6314 5902.7624 4709.6314 C 5902.7624 4709.6314 5902.1612 4709.4696 5902.1612 4709.4696 C 5902.1612 4709.4696 5901.5368 4709.3077 5901.5368 4709.3077 C 5901.5368 4709.3077 5900.9124 4709.169 5900.9124 4709.169 C 5900.9124 4709.169 5900.2881 4709.0533 5900.2881 4709.0533 C 5900.2881 4709.0533 5899.6637 4708.9377 5899.6637 4708.9377 C 5899.6637 4708.9377 5898.8544 4708.8221 5898.8544 4708.8221 C 5898.8544 4708.8221 5898.0451 4708.7296 5898.0451 4708.7296 C 5898.0451 4708.7296 5897.2357 4708.6602 5897.2357 4708.6602 C 5897.2357 4708.6602 5896.4264 4708.5909 5896.4264 4708.5909 C 5896.4264 4708.5909 5895.6401 4708.5446 5895.6401 4708.5446 C 5895.6401 4708.5446 5894.8539 4708.5215 5894.8539 4708.5215 C 5894.8539 4708.5215 5894.0677 4708.4984 5894.0677 4708.4984 C 5894.0677 4708.4984 5893.2815 4708.4984 5893.2815 4708.4984 C 5892.9346 4708.4984 5892.634 4708.7759 5892.634 4709.1458 C 5892.634 4709.4927 5892.9115 4709.7933 5893.2815 4709.7933 C 5894.0446 4709.7933 5894.0446 4709.7933 5894.0446 4709.7933 C 5894.0446 4709.7933 5894.8077 4709.8164 5894.8077 4709.8164 C 5894.8077 4709.8164 5895.5708 4709.8396 5895.5708 4709.8396 C 5895.5708 4709.8396 5896.3339 4709.8858 5896.3339 4709.8858 C 5896.3339 4709.8858 5897.097 4709.9552 5897.097 4709.9552 C 5897.097 4709.9552 5897.8832 4710.0246 5897.8832 4710.0246 C 5897.8832 4710.0246 5898.6694 4710.1171 5898.6694 4710.1171 C 5898.6694 4710.1171 5899.4556 4710.2327 5899.4556 4710.2327 C 5899.4556 4710.2327 5900.0569 4710.3252 5900.0569 4710.3252 C 5900.0569 4710.3252 5900.6581 4710.4408 5900.6581 4710.4408 C 5900.6581 4710.4408 5901.2593 4710.5564 5901.2593 4710.5564 C 5901.2593 4710.5564 5901.8374 4710.6952 5901.8374 4710.6952 C 5901.8374 4710.6952 5902.693 4710.9495 5902.693 4710.9495 C 5902.693 4710.9495 5903.5255 4711.227 5903.5255 4711.227 C 5903.5255 4711.227 5904.0573 4711.4351 5904.0573 4711.4351 C 5904.0573 4711.4351 5904.5661 4711.6664 5904.5661 4711.6664 C 5904.5661 4711.6664 5905.0748 4711.9207 5905.0748 4711.9207 C 5905.0748 4711.9207 5905.5604 4712.1982 5905.5604 4712.1982 C 5905.5604 4712.1982 5906.0229 4712.4988 5906.0229 4712.4988 C 5906.0229 4712.4988 5906.6472 4713.0076 5906.6472 4713.0076 C 5906.6472 4713.0076 5907.1328 4713.4701 5907.1328 4713.4701 C 5907.1328 4713.4701 5907.5722 4713.9788 5907.5722 4713.9788 C 5907.5722 4713.9788 5907.8959 4714.4413 5907.8959 4714.4413 C 5907.8959 4714.4413 5908.1734 4714.9269 5908.1734 4714.9269 C 5908.1734 4714.9269 5908.4278 4715.4356 5908.4278 4715.4356 C 5908.4278 4715.4356 5908.6359 4715.9675 5908.6359 4715.9675 C 5908.6359 4715.9675 5908.7978 4716.5224 5908.7978 4716.5224 C 5908.7978 4716.5224 5908.9134 4717.0774 5908.9134 4717.0774 C 5908.9134 4717.0774 5908.9597 4717.6555 5908.9597 4717.6555 C 5908.9597 4717.6555 5908.9597 4717.933 5908.9597 4717.933 C 5908.9597 4717.933 5908.9134 4718.5805 5908.9134 4718.5805 C 5908.9134 4718.5805 5908.7978 4719.2049 5908.7978 4719.2049 C 5908.7978 4719.2049 5908.6359 4719.8061 5908.6359 4719.8061 C 5908.6359 4719.8061 5908.4047 4720.4073 5908.4047 4720.4073 C 5908.4047 4720.4073 5908.1272 4720.9623 5908.1272 4720.9623 C 5908.1272 4720.9623 5907.7803 4721.4941 5907.7803 4721.4941 C 5907.7803 4721.4941 5907.4797 4721.8873 5907.4797 4721.8873 C 5907.4797 4721.8873 5907.1328 4722.2572 5907.1328 4722.2572 C 5907.1328 4722.2572 5906.7629 4722.6041 5906.7629 4722.6041 C 5906.7629 4722.6041 5906.3697 4722.9278 5906.3697 4722.9278 C 5906.3697 4722.9278 5905.8148 4723.3209 5905.8148 4723.3209 C 5905.8148 4723.3209 5905.2135 4723.6678 5905.2135 4723.6678 C 5905.2135 4723.6678 5904.7279 4723.8991 5904.7279 4723.8991 C 5904.7279 4723.8991 5904.4042 4724.0378 5904.4042 4724.0378 C 5904.4042 4724.0378 5903.7336 4724.2922 5903.7336 4724.2922 C 5903.7336 4724.2922 5903.063 4724.5003 5903.063 4724.5003 C 5903.063 4724.5003 5902.3924 4724.6621 5902.3924 4724.6621 C 5902.3924 4724.6621 5901.7218 4724.8009 5901.7218 4724.8009 C 5901.7218 4724.8009 5901.0512 4724.8934 5901.0512 4724.8934 C 5901.0512 4724.8934 5900.3806 4724.9396 5900.3806 4724.9396 C 5900.3806 4724.9396 5900.0337 4724.9628 5900.0337 4724.9628 C 5899.6869 4724.9859 5899.4094 4725.2634 5899.4094 4725.6334 C 5899.3169 4726.0265 5899.6175 4726.2808 5899.9412 4726.2808Z"></path> <path fill="#EFC78F" fill-opacity="1" stroke="#494747" stroke-opacity="1" stroke-width="1" id="tSvge374858272" d="M 5894.499 4708.9375 C 5894.499 4712.401 5897.4521 4719.2188 5909.2646 4718.7812 C 5909.2646 4717.1406 5911.4521 4710.5781 5894.499 4708.9375Z"></path> <defs></defs> </svg>