<svg xmlns="http://www.w3.org/2000/svg" viewBox="5665.90478515625 5107.4013671875 72.48046875 41.5185546875"> <path fill="#EFC78F" fill-opacity="1" stroke="" stroke-opacity="1" stroke-width="1" id="tSvge1f4a84328" d="M 5737.3851 5111.8492 C 5737.3694 5112.2201 5737.4088 5112.0653 5737.3118 5112.323 C 5736.255 5113.9674 5736.2243 5114.0136 5736.1919 5114.0625 C 5731.3302 5121.3881 5723.2005 5127.8484 5714.1948 5130.4288 C 5714.0718 5130.4671 5713.3183 5130.656 5712.0211 5130.9765 C 5711.4869 5131.1084 5710.9987 5131.2286 5710.5134 5131.3479 C 5710.2178 5131.4205 5710.3501 5131.3879 5710.1166 5131.4453 C 5709.9889 5131.6407 5709.8552 5131.844 5709.7098 5132.0633 C 5709.2946 5132.6901 5708.8689 5133.3204 5708.4568 5133.9142 C 5708.3843 5134.0186 5708.3129 5134.1212 5708.2424 5134.2216 C 5707.6982 5134.9974 5707.2303 5135.631 5706.8597 5136.0847 C 5704.4278 5139.0623 5698.762 5142.9078 5693.2421 5146.6243 C 5693.2272 5146.634 5693.2272 5146.634 5693.2272 5146.634 C 5692.2943 5147.2256 5691.4998 5147.6427 5690.9751 5147.8136 C 5690.5432 5147.9544 5690.234 5147.98 5689.9359 5147.7384 C 5689.6855 5147.5354 5689.6216 5147.2365 5689.6913 5146.9565 C 5689.7283 5146.8073 5689.8006 5146.6672 5689.9083 5146.5119 C 5692.198 5142.9471 5694.4454 5139.2614 5695.9993 5135.3032 C 5695.9301 5135.3421 5695.9898 5135.3079 5695.8289 5135.42 C 5695.8188 5135.4274 5695.8085 5135.4345 5695.798 5135.4414 C 5693.879 5136.6918 5692.2097 5136.7047 5691.1998 5134.562 C 5690.9788 5134.0893 5690.9788 5134.0893 5690.9788 5134.0893 C 5689.9313 5135.2956 5688.5238 5136.0775 5687.0412 5136.6027 C 5685.7154 5137.024 5682.0969 5137.6613 5681.5121 5137.4936 C 5681.2092 5137.3898 5681.064 5137.1533 5681.0494 5136.8357 C 5681.0467 5136.779 5681.0782 5136.7258 5681.0928 5136.6708 C 5680.0719 5137.0213 5679.0186 5137.2634 5677.9645 5137.4851 C 5677.2871 5137.6214 5676.6978 5137.7139 5676.2797 5137.7471 C 5676.025 5137.7672 5675.82642 5137.7669 5675.66426 5137.7377 C 5675.49477 5137.7069 5675.35012 5137.6491 5675.21811 5137.5118 C 5674.98272 5137.2674 5674.97182 5136.9255 5675.12329 5136.6717 C 5675.19419 5136.5298 5675.31301 5136.4333 5675.43123 5136.3334 C 5675.44899 5136.3335 5673.86695 5136.3275 5673.36751 5136.3208 C 5672.51575 5136.3092 5671.76576 5136.2841 5671.04237 5136.2376 C 5669.6394 5136.1475 5668.42539 5135.9817 5667.38523 5135.7131 C 5666.920004 5135.5932 5666.748439 5135.0214 5667.0689 5134.6598 C 5667.75111 5133.8902 5668.60865 5133.0957 5669.63873 5132.254 C 5670.20823 5131.7884 5670.8127 5131.3225 5671.50251 5130.8115 C 5673.3305 5129.4786 5673.23115 5129.5519 5673.40365 5129.4242 C 5673.17104 5129.3929 5672.93475 5129.3688 5672.71541 5129.2813 C 5672.43475 5129.1646 5672.242 5128.8835 5672.2868 5128.5453 C 5672.3121 5128.3556 5672.39403 5128.2218 5672.51205 5128.095 C 5672.62504 5127.9738 5672.78439 5127.8539 5673.00083 5127.7166 C 5673.35601 5127.4912 5673.88373 5127.2104 5674.50791 5126.9113 C 5675.4754 5126.443 5676.4694 5126.0344 5677.4847 5125.6851 C 5677.4165 5125.6424 5677.4678 5125.677 5677.3506 5125.5557 C 5677.1803 5125.3323 5677.1658 5125.0106 5677.3516 5124.7665 C 5677.7224 5124.2794 5681.0034 5122.6099 5682.3127 5122.1506 C 5683.8055 5121.6381 5685.4116 5121.4911 5686.9595 5121.7944 C 5686.8579 5121.2794 5686.8579 5121.2794 5686.8579 5121.2794 C 5686.7339 5120.4765 5686.4573 5119.364 5687.1422 5118.7147 C 5687.654 5118.2293 5689.322 5117.915 5689.98 5117.8582 C 5690.0949 5117.8281 5690.21 5117.7978 5690.3248 5117.7672 C 5686.6707 5115.6589 5682.7943 5113.8518 5678.7886 5112.5111 C 5678.6159 5112.4531 5678.4752 5112.3841 5678.3576 5112.2867 C 5678.1367 5112.1038 5678.0119 5111.8253 5678.0933 5111.5115 C 5678.1901 5111.1376 5678.4537 5110.9721 5678.8834 5110.8246 C 5679.4054 5110.6457 5680.2891 5110.5017 5681.387 5110.4145 C 5681.4046 5110.4133 5681.4046 5110.4133 5681.4046 5110.4133 C 5688.0274 5110.0704 5694.8665 5109.8142 5698.5741 5110.7394 C 5699.1391 5110.8802 5699.8885 5111.107 5700.7825 5111.402 C 5700.8984 5111.4402 5701.0162 5111.4794 5701.1358 5111.5195 C 5701.8168 5111.748 5702.5298999999995 5111.9976 5703.233 5112.2506 C 5703.9239 5112.5017 5703.9239 5112.5017 5703.9239 5112.5017 C 5704.1452 5112.4069 5704.0198 5112.4606 5704.2999 5112.3407 C 5705.6942 5111.7452 5705.6942 5111.7452 5705.7294 5111.7303 C 5706.9599 5111.2058 5707.6763 5110.9032 5707.7837 5110.8651 C 5716.5499 5107.5039 5726.8623 5107.7208 5735.0838 5110.6726 C 5736.4726 5111.1626 5736.7292 5111.2579 5737.0435 5111.4103 C 5737.2348 5111.5298 5737.131 5111.4481 5737.329 5111.6855 C 5737.3851 5111.8492 5737.3851 5111.8492 5737.3851 5111.8492 M 5690.3866 5132.8011 C 5690.1736 5132.2645 5690.2952 5132.5704 5690.0214 5131.8833 C 5689.5551 5132.2544 5689.0026 5132.49 5688.4522 5132.7002 C 5688.4331 5132.7067 5688.4331 5132.7067 5688.4331 5132.7067 C 5687.5883 5132.9752 5685.7028 5133.2902 5685.2666 5133.1651 C 5685.2516 5133.1608 5685.2516 5133.1608 5685.2516 5133.1608 C 5685.2516 5133.1608 5685.2369 5133.1558 5685.2369 5133.1558 C 5685.0973 5133.0982 5684.9445 5133.0377 5684.8518 5132.9085 C 5684.4894 5133.0153 5684.1197 5133.0933 5683.7506 5133.1724 C 5683.3801 5133.247 5683.0596 5133.2969 5682.8208 5133.3158 C 5682.6373 5133.3303 5682.4915 5133.3285 5682.3509 5133.3032 C 5682.1367 5133.2643 5681.9517 5133.1755 5681.7937 5133.0114 C 5681.6295 5132.8121 5681.7023 5132.9111 5681.5569 5132.5944 C 5681.3389 5132.5927 5681.4302 5132.5937 5681.2829 5132.5921 C 5680.8249 5132.5858 5680.4371 5132.5721 5680.0693 5132.5485 C 5679.3 5132.4991 5678.6523 5132.4074 5678.0954 5132.2636 C 5677.415 5132.0882 5677.1639 5131.2517 5677.6328 5130.7227 C 5677.9959 5130.3132 5678.4501 5129.889 5679.0117 5129.4301 C 5679.3012 5129.1934 5679.6133 5128.952 5679.9868 5128.6754 C 5680.1444 5128.5606 5680.0614 5128.6209 5680.2355 5128.4941 C 5680.1198 5128.335 5680.1273 5128.1287 5680.1365 5127.942 C 5680.1667 5127.715 5680.2628 5127.5322 5680.4123 5127.3715 C 5680.51 5127.2667 5680.6264 5127.1772 5680.782 5127.0784 C 5680.9845 5126.9499 5681.2711 5126.797 5681.6106 5126.6344 C 5682.2114 5126.3547 5681.866 5126.5084 5682.6513 5126.1849 C 5682.6428 5126.0115 5682.747 5125.8626 5682.8346 5125.7254 C 5683.111 5125.3622 5684.8106 5124.4786 5685.6494 5124.1842 C 5686.2186 5124.0037 5686.8218 5123.862 5687.4223 5123.8958 C 5687.279 5123.3521 5687.3409 5123.5895 5687.2359 5123.1838 C 5686.8584 5123.0902 5686.8584 5123.0902 5686.8584 5123.0902 C 5685.6718 5122.8041 5684.0779 5122.8878 5682.7351 5123.3681 C 5682.2372 5123.5429 5681.1889 5124.0236 5680.1713 5124.5414 C 5679.9578 5124.6513 5679.9578 5124.6513 5679.9578 5124.6513 C 5680.5217 5124.66 5680.1935 5124.6584 5680.9423 5124.6479 C 5681.6901 5124.6304 5681.8547 5125.6922 5681.1381 5125.9111 C 5678.486 5126.721 5678.486 5126.721 5678.486 5126.721 C 5678.486 5126.721 5678.4616 5126.7281 5678.4616 5126.7281 C 5677.6677 5126.9369 5676.282 5127.4897 5675.05664 5128.0765 C 5674.63596 5128.2828 5674.77618 5128.2081 5674.62923 5128.2866 C 5674.76437 5128.3029 5674.8959 5128.3353 5675.02207 5128.3855 C 5675.53715 5128.5954 5675.55364 5129.1055 5675.31853 5129.4614 C 5675.23777 5129.5837 5675.12497 5129.6992 5674.96377 5129.8393 C 5672.78221 5131.4667 5672.52181 5131.6572 5672.26255 5131.8492 C 5671.58814 5132.349 5670.99922 5132.8028 5670.44751 5133.2537 C 5669.42405 5134.1147 5669.97027 5133.6385 5668.81783 5134.6933 C 5669.58259 5134.8283 5670.35716 5134.8929 5671.13126 5134.9487 C 5671.83044 5134.9936 5672.55993 5135.0182 5673.39153 5135.0294 C 5676.0139 5135.0459 5676.4183 5135.0589 5676.7188 5135.0917 C 5676.9351 5135.1154 5677.0988 5135.1492 5677.2409 5135.2123 C 5677.6103 5135.3763 5677.8467 5135.7798999999995 5677.6127 5136.2218 C 5677.602 5136.2411 5677.602 5136.2411 5677.602 5136.2411 C 5677.602 5136.2411 5677.7184 5136.2188 5677.7184 5136.2188 C 5679.0482 5135.9515 5680.4867 5135.5604 5681.2473 5135.2495 C 5681.2709 5135.2403 5681.2709 5135.2403 5681.2709 5135.2403 C 5681.2709 5135.2403 5683.8779 5134.2923 5683.8779 5134.2923 C 5684.5588 5134.0446 5685.0606 5134.9374 5684.4997 5135.3981 C 5683.7684 5135.9988 5683.7684 5135.9988 5683.7684 5135.9988 C 5683.7684 5135.9988 5683.9088 5135.9748 5683.9088 5135.9748 C 5685.0313 5135.7772 5686.1563 5135.5315 5686.6626 5135.3705 C 5688.0204 5134.948 5689.3497 5134.0545 5690.1313 5133.1125 C 5690.3866 5132.8011 5690.3866 5132.8011 5690.3866 5132.8011 M 5689.5484 5130.6789 C 5688.3236 5127.1506 5688.0904 5126.3202 5687.8579 5125.49 C 5687.7454 5125.1455 5687.7454 5125.1455 5687.7454 5125.1455 C 5687.167 5125.0736 5686.5972 5125.1779 5686.045 5125.3485 C 5685.7556 5125.4501 5685.2041 5125.7036 5684.6841 5125.9739 C 5684.4908 5126.0749 5684.2982 5126.178 5684.1106 5126.2895 C 5684.8087 5126.727 5684.8087 5126.727 5684.8087 5126.727 C 5684.8087 5126.727 5683.5852 5127.1479 5683.5852 5127.1479 C 5683.0893 5127.3185 5682.6065 5127.5173 5682.1365 5127.7449 C 5681.8822 5127.8696 5681.9918 5127.8129 5681.806 5127.9118 C 5682.8966 5128.0585 5682.8966 5128.0585 5682.8966 5128.0585 C 5682.8966 5128.0585 5681.6753 5128.9627 5681.6753 5128.9627 C 5681.6218 5129.0022 5681.6074 5129.0128 5681.504 5129.0882 C 5681.4635 5129.1177 5680.9801 5129.4702 5680.7083 5129.6684 C 5680.3535 5129.9311 5680.0566 5130.1607 5679.7833 5130.384 C 5679.2385 5130.8426 5679.5341 5130.583 5678.9041 5131.1718 C 5679.819 5131.3018 5679.4017 5131.2579 5680.154 5131.3188 C 5680.4998 5131.341 5680.8674 5131.354 5681.306 5131.36 C 5681.3951 5131.3612 5681.5618 5131.3624 5681.7832 5131.3636 C 5681.7887 5131.3637 5681.7887 5131.3637 5681.7887 5131.3637 C 5681.9118 5131.3644 5682.0431 5131.365 5682.1776 5131.3657 C 5682.2524 5131.366 5682.2524 5131.366 5682.3045 5131.3662 C 5682.3255 5131.3662 5682.3255 5131.3662 5682.3392 5131.3664 C 5682.3446 5131.3663 5682.3446 5131.3663 5682.348 5131.3663 C 5682.3495 5131.3663 5682.3495 5131.3663 5682.3506 5131.3664 C 5682.3513 5131.3663 5682.3513 5131.3663 5682.3537 5131.3664 C 5682.3553 5131.3663 5682.3553 5131.3663 5682.4039 5131.369 C 5682.3732 5132.0169 5682.3732 5132.0169 5682.3732 5132.0169 C 5682.3732 5132.0169 5682.7254 5132.4387 5682.7254 5132.4387 C 5682.7834 5132.3194 5682.7413 5132.2459 5682.6782 5132.1526 C 5682.644 5132.1171 5682.5971 5132.0945 5682.5747 5132.0904 C 5682.5793 5132.0913 5682.5918 5132.0923 5682.6122 5132.0925 C 5682.6423 5132.0929 5682.6815 5132.0913 5682.731 5132.0874 C 5682.9132 5132.073 5683.189 5132.03 5683.5104 5131.9655 C 5684.1685 5131.8269 5684.606 5131.7164 5685.0289 5131.5713 C 5686.1111 5131.1997 5686.1111 5131.1997 5686.1111 5131.1997 C 5686.1111 5131.1997 5685.9131 5131.948 5685.9131 5131.948 C 5686.145 5131.9252 5686.3753 5131.8875 5686.6055 5131.8507 C 5687.0935 5131.7656 5687.5824 5131.6758 5688.0583 5131.5351 C 5688.4818 5131.3858 5688.8882 5131.1883 5689.2549 5130.9261 C 5689.4552 5130.764 5689.3574 5130.8464 5689.5484 5130.6789Z M 5702.3185 5113.2982 C 5701.4081 5112.9755 5701.9395 5113.1615 5700.7224 5112.7446 C 5700.6048 5112.7052 5700.489 5112.6667 5700.3753 5112.6292 C 5699.5087 5112.3432 5698.7857 5112.1245 5698.2577 5111.9927 C 5693.1816 5110.8881 5686.638 5111.4562 5681.4738 5111.7025 C 5680.953 5111.7483 5681.2355 5111.7203 5680.6262 5111.7902 C 5683.4281 5112.8507 5686.1705 5114.0721 5688.8325 5115.4464 C 5689.9714 5116.0157 5691.0981 5116.6215 5692.0674 5117.4558 C 5693.3197 5117.0947 5694.5357 5116.6198 5695.7414 5116.1257 C 5696.8472 5115.6667 5699.2854 5114.7576 5700.4744 5114.1947 C 5701.0919 5113.9018 5701.7074 5113.6044 5702.3185 5113.2982Z M 5708.3922 5131.7224 C 5707.7481 5131.8173 5707.107 5131.9324 5706.4659 5132.0457 C 5705.1198 5132.2896 5702.546 5132.9485 5701.3405 5133.2498 C 5700.3216 5133.5065 5699.3081 5133.7912 5698.3196 5134.1513 C 5698.0956 5134.2329 5697.8752 5134.324 5697.6529 5134.4105 C 5697.6467 5134.4572 5697.6467 5134.4572 5697.6467 5134.4572 C 5696.2272 5138.5235 5694.0966 5142.3652 5691.7934 5145.995 C 5692.3359 5145.6766 5692.0887 5145.827 5692.5376 5145.5474 C 5696.7908 5142.5848 5702.4777 5139.2565 5705.8668 5135.269 C 5706.2132 5134.845 5706.6646 5134.2336 5707.1921 5133.4817 C 5707.2613 5133.383 5707.3316 5133.2824 5707.4027 5133.1797 C 5708.1458 5132.0946 5707.8174 5132.5812 5708.3921 5131.7223 C 5708.3922 5131.7224 5708.3922 5131.7224 5708.3922 5131.7224 M 5729.1214 5120.142 C 5727.7405 5117.9538 5726.8115 5115.4648 5726.2395 5112.9414 C 5726.0469 5112.0915 5725.8343 5110.9233 5725.7988 5110.043 C 5719.4348 5109.3818 5714.2479 5109.9296 5708.223 5112.0764 C 5708.1418 5112.1053 5707.3628 5112.4344 5706.2267 5112.9186 C 5705.7208 5113.1343 5705.2583 5113.3319 5704.7989 5113.5284 C 5703.7968 5113.9946 5703.5728 5114.1091 5703.3232 5114.2352 C 5702.6103 5114.5949 5701.8334 5114.9763 5701.0179 5115.3623 C 5699.8111 5115.9336 5697.3542 5116.851 5696.2272 5117.3188 C 5694.2935 5118.0722 5692.2199 5118.9834 5690.1305 5119.1404 C 5690.1269 5119.1409 5690.1269 5119.1409 5690.1269 5119.1409 C 5689.2934 5119.1968 5688.0956 5119.5516 5688.0254 5119.6489 C 5687.9454 5119.7599 5687.9488 5120.1416 5688.12 5121.024 C 5688.4162 5122.5251 5688.4162 5122.5251 5688.4162 5122.5251 C 5688.4162 5122.5251 5688.4209 5122.5955 5688.4209 5122.5955 C 5688.4209 5122.5955 5688.4261 5122.5951000000005 5688.4261 5122.5951000000005 C 5688.4976 5123.4284 5691.1603 5131.5392 5691.7071 5132.6026 C 5691.7047 5132.6038 5691.7047 5132.6038 5691.7047 5132.6038 C 5691.7047 5132.6038 5691.7177 5132.6244 5691.7177 5132.6244 C 5691.7177 5132.6244 5692.3637 5134.0064 5692.3637 5134.0064 C 5692.7472 5134.8201 5692.9695 5135.1287 5693.0991 5135.1695 C 5693.4261 5135.1798 5694.8123 5134.5434 5695.0854 5134.3696 C 5696.8149 5133.0975 5698.99 5132.5207 5701.036 5131.9967 C 5702.2714 5131.6878 5704.8721 5131.0233 5706.2442 5130.7748 C 5707.0981 5130.6202 5707.9168 5130.4866 5708.672 5130.3744 C 5709.887 5130.1738 5710.0442 5130.1352 5710.214 5130.0935 C 5711.6829 5129.7317 5711.6829 5129.7317 5711.7201000000005 5129.7226 C 5712.9175 5129.4267 5713.7369 5129.2213 5713.8336 5129.1913 C 5719.9175 5127.3287 5724.4186 5124.4737 5729.1214 5120.142Z M 5723.2353 5116.7984 C 5723.9256 5119.5238 5722.4384 5122.2366 5719.813 5123.1887 C 5717.0657 5124.1072 5714.1086 5122.6193 5713.2084 5119.8655 C 5712.3082 5117.1118 5713.8057 5114.135 5716.5532 5113.2165 C 5719.3005 5112.298 5722.2576 5113.7858 5723.1578 5116.5396 C 5723.2353 5116.7984 5723.2353 5116.7984 5723.2353 5116.7984 M 5721.9939 5117.1433 C 5721.9355 5116.9482 5721.9355 5116.9482 5721.9355 5116.9482 C 5721.2565 5114.8709 5719.026 5113.7487 5716.9536 5114.4416 C 5714.8812 5115.1344 5713.7517 5117.3798 5714.4307 5119.4569 C 5715.1098 5121.5341 5717.3402 5122.6563 5719.4126 5121.9636 C 5721.4829 5121.239 5722.4505 5119.2344 5721.9939 5117.1433Z M 5735.8081 5112.3059 C 5735.2014 5112.1027 5734.916 5112.0009 5734.6356 5111.8858 C 5732.1982 5111.0389 5729.6643 5110.5546 5727.1165 5110.1852 C 5727.3882 5112.9355 5728.1652 5115.632 5729.4356 5118.0825 C 5729.6408 5118.4783 5729.874 5118.8587 5730.0932 5119.2468 C 5731.9898 5117.4818 5733.6596 5115.488 5735.1223 5113.351 C 5735.4542 5112.8505 5735.6336 5112.5797 5735.8081 5112.3059Z"></path> <path fill="#EFC78F" fill-opacity="1" stroke="" stroke-opacity="1" stroke-width="1" id="tSvg13d965e1f54" d="M 5720.7484 5117.3094 C 5720.8243 5117.5556 5720.8243 5117.5556 5720.8243 5117.5556 C 5720.9677 5118.1825 5720.8651 5118.7789 5720.6127 5119.3611 C 5719.9537 5120.6938 5718.3464 5121.2436 5717.0225 5120.589 C 5715.6987 5119.9344 5715.1597 5118.3235 5715.8186 5116.9908 C 5716.4776 5115.6581 5718.0849 5115.1083 5719.4087 5115.7629 C 5719.9615 5116.0449 5720.4068 5116.4967 5720.661 5117.0679 C 5720.7484 5117.3094 5720.7484 5117.3094 5720.7484 5117.3094 M 5719.5803 5117.6817 C 5719.4447 5117.3164 5719.1853 5117.0681 5718.8619 5116.8689 C 5718.1449 5116.5144 5717.2741 5116.8122 5716.9172 5117.534 C 5716.5603 5118.2559 5716.8524 5119.1285 5717.5694 5119.483 C 5718.2865 5119.8376 5719.1571 5119.5398 5719.514 5118.8179 C 5719.6847 5118.4748 5719.6771 5118.206 5719.6287 5117.84 C 5719.5803 5117.6817 5719.5803 5117.6817 5719.5803 5117.6817"></path> <defs></defs> </svg>